<?xml version="1.0" encoding="UTF-8" standalone="no"?>
<svg
   xmlns:svg="http://www.w3.org/2000/svg"
   xmlns="http://www.w3.org/2000/svg"
   width="409pt"
   version="1.1"
   height="227pt"
   viewBox="0 0 409 227"
   id="svg2"
>
  <metadata
     id="metadata223">
  </metadata>
  <defs
     id="defs4">
    <clipPath
       id="Clip0">
      <path
         d="M0 226.775 L408.95 226.775 L408.95 0 L0 0 L0 226.775 Z"
         transform="translate(0.0498047, 0)"
         id="path7" />
    </clipPath>
    <clipPath
       id="Clip1">
      <path
         d="M0 0 L408.904 0 L408.904 226.771 L0 226.771 L0 0 Z"
         transform="translate(0.0498047, 0.00390625)"
         id="path10" />
    </clipPath>
    <clipPath
       id="Clip2">
      <path
         d="M0 0 L312.206 0 L312.206 50.186 L0 50.186 L0 0 Z"
         transform="translate(96.7402, 121.183)"
         id="path13" />
    </clipPath>
    <clipPath
       id="Clip3">
      <path
         d="M0 0 L312.192 0 L312.192 50.172 L0 50.172 L0 0 Z"
         transform="translate(96.7471, 121.19)"
         id="path16" />
    </clipPath>
    <clipPath
       id="Clip4">
      <path
         d="M0 0 L54.184 0 L54.184 6.231 L0 6.231 L0 0 Z"
         transform="translate(126.347, 121.689)"
         id="path19" />
    </clipPath>
    <clipPath
       id="Clip5">
      <path
         d="M0 0 L312.206 0 L312.206 50.1705 L0 50.1705 L0 0 Z"
         transform="translate(96.7402, 60.4805)"
         id="path22" />
    </clipPath>
    <clipPath
       id="Clip6">
      <path
         d="M0 0 L312.207 0 L312.207 50.1709 L0 50.1709 L0 0 Z"
         transform="translate(96.7402, 0.0107422)"
         id="path25" />
    </clipPath>
    <clipPath
       id="Clip7">
      <path
         d="M0 0 L90.6475 0 L90.6475 116.117 L0 116.117 L0 0 Z"
         transform="translate(0.0566406, 110.651)"
         id="path28" />
    </clipPath>
    <clipPath
       id="Clip8">
      <path
         d="M0 0 L89.2285 0 L89.2285 110.773 L0 110.773 L0 0 Z"
         transform="translate(0.789063, 115.5)"
         id="path31" />
    </clipPath>
    <clipPath
       id="Clip9">
      <path
         d="M0 0 L110.419 0 L110.419 20.192 L0 20.192 L0 0 Z"
         transform="translate(96.7402, 186.599)"
         id="path34" />
    </clipPath>
  </defs>
  <g
     id="g4639"
     style="fill:#4d4d4d">
    <g
       id="Gruppe6"
       clip-path="url(#Clip5)"
       style="fill:#4d4d4d">
      <path
         style="fill:#4d4d4d;fill-rule:evenodd;stroke:none"
         d="m 43.8778,33.0742 c 0,0 0,12.0963 -13.247,15.7683 0,0 -4.618,1.293 -9.934,1.293 0,0 -11.156,0 -20.6968,-5.419 l 6.6228,-9.9988 c 0,0 6.972,5.0338 13.639,5.0338 0,0 3.006,0 5.098,-1.1177 0,0 2.439,-1.2588 2.439,-3.5674 0,0 0,-2.0977 -2.7,-3.4961 0,0 -2.005,-1.0479 -6.755,-2.1319 0,0 -5.752,-1.3642 -7.233,-1.8886 0,0 -2.353,-0.8037 -4.009,-1.8877 0,0 -4.7492,-3.1475 -4.7492,-9.5098 0,0 0,-6.6435 4.9232,-11.0127 0,0 5.752,-5.1396 15.338,-5.1396 0,0 9.63,0 18.869,3.8808 l -6.189,9.6494 c 0,0 -5.055,-3.1464 -10.195,-3.1464 0,0 -2.485,0 -4.445,1.0136 0,0 -2.223,1.1534 -2.223,3.0772 0,0 0,1.8877 2.92,3.251 0,0 1.307,0.6298 7.843,2.1679 0,0 8.192,1.9219 11.677,5.4541 0,0 3.007,3.0069 3.007,7.7266 z"
         transform="translate(96.7402,60.4805)"
         id="path61"/>
      <path
         style="fill:#4d4d4d;fill-rule:evenodd;stroke:none"
         d="m 45.491,47.6189 c 0,0 -7.582,2.412 -14.031,2.412 0,0 -11.242,0 -20.131,-5.768 0,0 -11.329,-7.3781 -11.329,-19.2307 0,0 0,-11.8867 11.329,-19.2627 0,0 8.889,-5.7695 20.262,-5.7695 0,0 6.187,0 13.9,2.4131 l 0,14.8584 c 0,0 -2.179,-2.1318 -4.445,-3.2158 0,0 -4.14,-1.9932 -8.889,-1.9932 0,0 -6.013,0 -10.458,2.9014 0,0 -5.62,3.6719 -5.62,10.0683 0,0 0,6.3643 5.62,10.0352 0,0 4.445,2.9023 10.458,2.9023 0,0 4.749,0 8.889,-1.9931 0,0 2.222,-1.0498 4.445,-3.2168 l 0,14.8591 z"
         transform="translate(147.721,60.6201)"
         id="path63" />
      <path
         style="fill:#4d4d4d;fill-rule:evenodd;stroke:none"
         d="m 53.247,47.7232 -15.468,0 0,-19.858 -22.31,0 0,19.858 L 0,47.7232 0,0 l 15.469,0 0,18.4248 22.31,0 0,-18.4248 15.468,0 0,47.7232 z"
         transform="translate(203.016,61.6348)"
         id="path65"/>
      <path
         style="fill:#4d4d4d;fill-rule:evenodd;stroke:none"
         d="m 51.897,27.5146 c 0,0 0,4.3008 -0.872,7.3428 0,0 -1.351,4.7198 -6.448,8.5998 0,0 -7.235,5.49 -19.347,5.49 0,0 -12.332,0 -19.261,-5.594 0,0 -3.66,-2.937 -5.011,-7.3776 0,0 -0.958,-3.1465 -0.958,-8.461 L 0,0 l 15.469,0 0,25.8359 c 0,0 0,3.1133 0.13,4.6514 0,0 0.437,4.8584 5.534,6.7822 0,0 2.091,0.8037 4.619,0.8037 0,0 5.665,0 8.542,-3.1816 0,0 2.134,-2.3428 2.134,-9.0557 l 0,-25.8359 15.469,0 0,27.5146 z"
         transform="translate(268.769,61.6348)"
         id="path67"/>
      <path
         style="fill:#4d4d4d;fill-rule:evenodd;stroke:none"
         d="M 34.031,47.7232 0,47.7232 0,0 l 15.469,0 0,37.3398 18.562,0 0,10.3834 z"
         transform="translate(333.128,61.6348)"
         id="path69" />
      <path
         style="fill:#4d4d4d;fill-rule:evenodd;stroke:none"
         d="M 33.856,47.7232 0,47.7232 0,0 l 33.856,0 0,10.3838 -18.387,0 0,8.0761 17.385,0 0,10.3838 -17.385,0 0,8.4961 18.387,0 0,10.3834 z"
         transform="translate(375.089,61.6348)"
         id="path71" />
    </g>
    <g
       id="Gruppe7"
       clip-path="url(#Clip6)"
       style="fill:#4d4d4d">
      <path
         style="fill:#4d4d4d;fill-rule:evenodd;stroke:none"
         d="m 49.2668,22.5088 c 0,0 0,7.6768 -1.723,12.5176 0,0 -2.618,7.3643 -8.646,11.3408 0,0 -5.824,3.8037 -13.782,3.8037 0,0 -12.954,0 -19.879,-8.8525 0,0 -5.2368,-6.707 -5.2368,-16.0078 0,0 0,-10.3047 6.1328,-17.32427 0,0 6.959,-7.98633 19.431,-7.98633 0,0 8.337,0 14.125,4.28809 0,0 4.134,3.04199 7.063,8.98931 l -11.611,4.8057 c 0,0 -1.481,-3.3194 -3.445,-4.9795 0,0 -2.825,-2.3506 -6.717,-2.3506 0,0 -7.959,0 -11.095,8.2636 0,0 -1.171,3.043 -1.171,6.294 0,0 0,6.7412 4.237,11.2363 0,0 3.136,3.3545 8.373,3.3545 0,0 4.651,0 7.374,-2.7324 0,0 1.791,-1.7979 2.342,-5.3242 l -10.026,0 0,-9.336 24.254,0 z"
         transform="translate(96.7402,0.0107422)"
         id="path74" />
      <path
         style="fill:#4d4d4d;fill-rule:evenodd;stroke:none"
         d="M 26.769,47.1963 0,47.1963 0,0 l 26.769,0 0,10.2686 -14.538,0 0,7.9873 13.745,0 0,10.2695 -13.745,0 0,8.4024 14.538,0 0,10.2685 z"
         transform="translate(153.759,1.53223)"
         id="path76" />
      <path
         style="fill:#4d4d4d;fill-rule:evenodd;stroke:none"
         d="m 71.523,0 -15.022,47.1963 -12.47,0 -8.58,-27.3506 -8.991,27.3506 -12.438,0 L 0,0 12.782,0 20.947,30.4961 30.903,0 40.62,0 49.887,30.4961 58.776,0 71.523,0 Z"
         transform="translate(183.353,1.53223)"
         id="path78"
          />
      <path
         style="fill:#4d4d4d;fill-rule:evenodd;stroke:none"
         d="M 26.769,47.1963 0,47.1963 0,0 l 26.769,0 0,10.2686 -14.538,0 0,7.9873 13.745,0 0,10.2695 -13.745,0 0,8.4024 14.538,0 0,10.2685 z"
         transform="translate(259.803,1.53223)"
         id="path80"
          />
      <path
         style="fill:#4d4d4d;fill-rule:evenodd;stroke:none"
         d="m 39.104,47.1963 -15.229,0 -11.644,-18.1181 0,18.1181 L 0,47.1963 0,0 19.018,0 c 0,0 8.337,0 12.333,5.01269 0,0 3.239,4.04588 3.239,9.50881 0,0 0,6.2588 -3.721,9.9932 0,0 -2.377,2.3847 -6.547,3.3193 L 39.104,47.1963 Z M 21.877,15.2139 c 0,0 0,-2.5254 -1.826,-4.2539 0,0 -1.723,-1.62503 -5.547,-1.62503 l -2.273,0 0,11.79003 2.273,0 c 0,0 3.859,0 5.547,-1.624 0,0 1.826,-1.7637 1.826,-4.2871 z"
         transform="translate(294.324,1.53223)"
         id="path82"
          />
      <path
         style="fill:#4d4d4d;fill-rule:evenodd;stroke:none"
         d="m 35.831,33.7813 c 0,0 0,5.289 -2.998,8.6084 0,0 -4.341,4.8066 -13.23,4.8066 L 0,47.1963 0,0 18.191,0 c 0,0 13.229,0 13.229,12.3086 0,0 0,3.6992 -1.447,6.1885 0,0 -1.205,2.1103 -3.72,3.5967 0,0 5.649,1.1758 7.716,4.5293 0,0 1.862,3.0771 1.862,7.1582 z M 20.12,13.9336 c 0,0 0,-3.2158 -2.894,-4.25193 0,0 -1.034,-0.3467 -2.756,-0.3467 l -2.239,0 0,9.23243 2.239,0 c 0,0 3.169,0 4.547,-1.5557 0,0 1.103,-1.2451 1.103,-3.0781 z m 3.479,19.0176 c 0,0 0,-4.1152 -4.237,-4.8408 0,0 -1.343,-0.208 -4.616,-0.208 l -2.515,0 0,9.958 2.721,0 c 0,0 4.685,0 6.547,-1.1065 0,0 2.1,-1.2451 2.1,-3.8027 z"
         transform="translate(338.56,1.53223)"
         id="path84"
          />
      <path
         style="fill:#4d4d4d;fill-rule:evenodd;stroke:none"
         d="M 26.769,47.1963 0,47.1963 0,0 l 26.769,0 0,10.2686 -14.538,0 0,7.9873 13.745,0 0,10.2695 -13.745,0 0,8.4024 14.538,0 0,10.2685 z"
         transform="translate(382.177,1.53223)"
         id="path86"
          />
    </g>
  </g>
  <g
     clip-path="url(#Clip7)"
     id="Gruppe8">
    <path
        
       id="path89"
       transform="translate(0.743164,111.34)"
       d="m 0,0 0,66.75 c 0,26.504 19.9843,47.99 44.6367,47.99 24.6533,0 44.6279,-21.486 44.6308,-47.99 L 89.2754,0 0,0 Z"
       style="fill:#ffffff;fill-rule:evenodd;stroke:#171715;stroke-width:1.37459004;stroke-linecap:butt;stroke-linejoin:miter;stroke-dasharray:none" />
    <path
        
       id="path91"
       transform="translate(10.3691,116.556)"
       d="m 38.2383,0.009 c -2.2217,0.115 -5.249,0.646 -6.8047,1.67 -2.9502,-1.352 -5.8466,0.498 -8.6797,1.293 1.0313,3.568 5.4043,5.049 2.294,7.555 -0.0625,0.888 -0.5742,4.314 -0.2109,6.793 -2.168,2.038 -2.3438,5.338 -2.4795,8.132 1.5175,-0.903 4.2851,-3.178 2.2109,0.051 -1.0957,2.715 -0.3164,6.274 -3.2139,7.912 0.5655,1.447 4.2012,-1.128 1.4082,1.479 -1.0703,1.173 -2.1992,0.668 -0.3232,1.369 -0.9639,2.142 -7.8877,6.49 -11.7549,9.413 -1.8037,1.244 -2.5752,4.576 -2.3672,5.91 -1.8857,-3.929 -4.6181,-8.684 -2.4863,-13.121 1.8975,-3.409 4.8574,-5.982 6.9482,-9.26 2.876,-4.29 6.0508,-8.593 7.5479,-13.69 C 21.7032,10.556 18.5664,4.514 13.5469,3.917 9.7217,3.461 4.5635,4.651 3.5137,9.224 c -0.2549,4.771 -3.2129,5.259 -0.207,9.754 0.8301,1.21 0.7959,2.593 0.6523,4.096 -0.039,0.408 1.4551,-0.567 2.1026,-1.74 0.7324,-0.384 3.7939,-2.82 4.1513,-5.216 -1.5312,-3.488 -3.4726,-8.55 1.8018,-8.367 2.8164,0.097 5.1504,2.65 4.4209,5.838 C 15.0674,19.57 11.3868,24.499 8.0215,29.323 6.001,32.325 3.2051,34.786 1.75,38.176 0,43.089 2.293,48.223 4.7217,52.335 l 17.4414,-0.063 c 3.2422,-9.786 15.9043,-7.445 18.876,-12.932 4.7578,3.769 4.1543,5.095 4.3594,2.014 1.584,0.12 4.2881,2.74 5.1406,1.367 1.7002,0.264 3.4727,3.869 3.7852,1.513 1.7304,-0.01 4.2168,4.271 3.54,0.814 1.3437,-0.068 4.2295,2.73 3.2861,0.331 1.5391,-0.782 4.2451,4.192 6.5801,2.176 0.9649,0.121 2.2891,2.118 1.6631,-0.143 -2.4981,-1.691 -0.4072,-4.023 1.5937,-3.065 1.4688,-2.964 -3.5419,-1.937 -1.4697,-4.459 3.3701,0.861 2.4297,-1.047 -0.0957,-1.227 -0.9189,-3.411 -5.5986,-0.26 -8.626,1.164 -3.29,0.959 -5.9375,-2.239 -8.7597,-3.514 -2.1699,-0.79 -0.5762,-1.156 -0.458,-4.064 1.4677,-0.873 4.6982,0.786 2.7949,-1.367 2.8525,0.168 6.9238,0.668 3.8867,-1.331 1.7334,-0.684 4.1973,0.064 2.54,-1.386 1.2872,-0.004 3.5967,0.089 1.8975,-1.202 0.7451,-0.768 4.252,-1.906 1.4473,-2.231 1.6504,-1.167 3.6904,-0.789 1.2363,-2.458 5.9209,-3.115 5.1543,-3.99 6.3428,-2.654 1.3408,-2.736 -4.6358,-1.039 -1.5547,-3.975 0.3808,-1.974 2.5137,2.056 1.833,-0.733 -0.8594,-2.028 -2.418,-1.022 -4.2607,-2.497 0.9179,-2.504 1.4267,-1.518 2.5517,-1.151 1.4209,-1.165 -3.3476,-3.386 -5.4629,-1.961 -1.6113,2.343 -1.3066,7.163 -3.0986,11.488 -1.9883,3.367 -6.1856,3.625 -9.5361,3.539 -1.4375,-3.961 -5.4551,-1.796 -8.3282,-2.155 -3.7656,0.825 -5.9101,-5.657 -1.5986,-5.024 3.0508,2.625 7.7812,0.924 5.1631,-3.374 -1.6172,-0.262 -7.4727,0.583 -3.1641,-1.004 3.0469,-0.552 5.9649,1.758 8.9873,1.495 1.3584,-0.211 2.6016,-5.107 -0.8633,-2.524 -3.5,1.05 -7.8086,-1.558 -10.9433,1.064 -2.7363,2.003 0.3672,-5.098 2.9267,-2.764 1.8711,0.953 6.1905,2.767 5.4913,-2.761 C 51.2188,2.41 44.9004,5.767 43.3448,2.796 41.8946,1.463 40.2608,0 38.2383,0.009 Z m 0.75,3.69 c 2.708,0.95 1.9658,4.968 -1.3613,2.441 -2.0977,0.635 0.7012,-2.254 1.3613,-2.441 z"
       style="fill:#e2000a;fill-rule:evenodd;stroke:none" />
    <path
        
       id="path93"
       transform="translate(0.744141,168.763)"
       d="m 0,0 0,9.328 c 0,26.504 19.9844,47.99 44.6368,47.99 L 44.6368,0 0,0 Z"
       style="fill:#f7a607;fill-rule:evenodd;stroke:#171715;stroke-width:0.94133699;stroke-linecap:butt;stroke-linejoin:miter;stroke-dasharray:none" />
    <path
        
       id="path95"
       transform="translate(45.3818,168.763)"
       d="m 44.6377,0 0,9.328 C 44.6377,35.832 24.6534,57.318 0,57.318 L 0,0 44.6377,0 Z"
       style="fill:#0f3f93;fill-rule:evenodd;stroke:#171715;stroke-width:0.94133699;stroke-linecap:butt;stroke-linejoin:miter;stroke-dasharray:none" />
    <g
       clip-path="url(#Clip8)"
       id="Gruppe9">
      <path
          
         id="path98"
         transform="translate(45.3818,168.759)"
         d="m 0,32.749 c 3.0655,-2.79 6.1358,-5.687 7.544,-8.102 1.4072,-2.414 2.2832,-5.366 3.7275,-7.714 1.4434,-2.346 6.5137,-5.761 8.6524,-7.955 C 22.0625,6.785 23.2364,2.709 25.8243,0 L 44.458,0 c -4.1259,3.845 -5.0927,5.453 -7.0029,8.82 -1.7812,3.142 -1.2851,3.2 -3.2129,6.194 -2.0478,3.183 -4.3789,4.2 -5.8457,5.557 -1.7148,1.588 -3.8232,3.529 -5.7324,6.386 -1.9238,2.881 -4.8857,10.388 -7.7607,13.694 C 11.8379,44.177 3.0664,49.946 0,57.143 L 0,32.749 Z"
         style="fill:#ffffff;fill-rule:evenodd;stroke:#171715;stroke-width:0.94133699;stroke-linecap:round;stroke-linejoin:round;stroke-dasharray:none" />
      <path
          
         id="path100"
         transform="translate(0.967773,168.776)"
         d="M 44.414,57.305 0,0.058 18.5625,0 44.414,32.756 l 0,24.549 z"
         style="fill:#e2000a;fill-rule:evenodd;stroke:#171715;stroke-width:0.94133699;stroke-linecap:round;stroke-linejoin:round;stroke-dasharray:none" />
      <path
          
         id="path102"
         transform="translate(45.3145,119.82)"
         d="m 1.8398,2.635 -0.5947,0.5 C 2.1298,2.458 3.0761,3.007 3.4931,3.275 4.2382,3.677 4.7041,3.991 5.206,3.668 6.1894,3.034 5.4277,1.207 5.0332,0.811 4.2285,0 3.166,0.724 2.9013,1.28 2.0732,3.019 1.206,2.623 0,2.479 1.3359,2.696 1.8398,2.635 1.8398,2.635 Z"
         style="fill:#ffffff;fill-rule:evenodd;stroke:#171715;stroke-width:0.94133699;stroke-linecap:round;stroke-linejoin:round;stroke-dasharray:none" />
      <path
          
         id="path104"
         transform="translate(11.0996,123.837)"
         d="M 4.0449,44.907 C 1.8428,41.515 0,37.455 0.6914,32.551 1.2432,28.626 3.5801,27.353 7.8281,21.37 8.3604,20.62 12.9443,14.492 14.9141,9.322 15.1983,8.577 15.6904,7.19 15.8106,6.404 16.5127,1.801 13.0859,0 9.5752,0.531 6.4609,1.003 8.4346,6.436 8.8545,7.038 9.8096,8.41 9.4736,10.202 8.583,10.573"
         style="fill:none;stroke:#171715;stroke-width:0.94133699;stroke-linecap:round;stroke-linejoin:round;stroke-dasharray:none" />
      <path
          
         id="path106"
         transform="translate(31.5996,139.855)"
         d="M 2.666,10.285 C 1.5371,10.631 0.7647,10.651 0,10.124 1.2197,9.098 2.1182,8.302 2.5684,6.864 2.8438,5.984 2.5576,5.199 2.8672,3.918 3.1084,2.924 3.5537,1.574 4.4932,0"
         style="fill:none;stroke:#171715;stroke-width:0.94133699;stroke-linecap:round;stroke-linejoin:round;stroke-dasharray:none" />
      <path
          
         id="path108"
         transform="translate(34.7383,127.243)"
         d="M 0.5234,6.606 C 0.0771,5.799 0,3.356 0.6025,2.101 1.2471,0.759 2.3496,0 3.0986,0.075"
         style="fill:none;stroke:#171715;stroke-width:0.94133699;stroke-linecap:round;stroke-linejoin:round;stroke-dasharray:none" />
      <path
          
         id="path110"
         transform="translate(51.2891,126.527)"
         d="M 0,3.419 C 1.1582,2.086 2.58,1.4 3.9336,1.399 5.4082,1.398 11.1132,2.903 12.8359,0.971 13.7011,0 14.5547,4.008 11.8945,4.286 10.8359,4.397 8.7949,3.51 6.0117,2.84 4.3086,2.446 2.7822,2.619 1.6982,3.85"
         style="fill:none;stroke:#171715;stroke-width:0.94133699;stroke-linecap:round;stroke-linejoin:round;stroke-dasharray:none" />
      <path
          
         id="path112"
         transform="translate(62.5771,124.281)"
         d="M 0,16.65 C 1.4346,16.646 2.9991,16.548 4.3516,16.295 7.3057,15.85 9.4463,14.01 10.0303,11.829 10.502,9.307 11.1934,6.73 11.6299,4.174 12.0147,1.523 13.5254,0 15.6866,1.572 c 0.3906,0.284 0.5117,0.875 0.5332,1.388 -0.1211,1.749 -1.2569,2.521 -2.2432,3.9 0.7432,-0.972 1.1465,-1.553 1.8096,-1.744 0.8603,-0.247 1.4306,0.221 1.8086,0.861 0.2314,0.392 0.3398,0.872 0.373,1.328 0.0547,0.744 -0.501,1.504 -1.123,1.912 -0.583,0.383 -1.3262,0.884 -2.1377,1.007"
         style="fill:none;stroke:#171715;stroke-width:0.94133699;stroke-linecap:round;stroke-linejoin:round;stroke-dasharray:none" />
      <path
          
         id="path114"
         transform="translate(78.2129,125.099)"
         d="M 0,0.714 C 0.9951,0 2.583,1.019 2.748,3.017 2.2226,2.518 1.5293,1.889 0.6211,2.197"
         style="fill:none;stroke:#171715;stroke-width:0.94133699;stroke-linecap:round;stroke-linejoin:round;stroke-dasharray:none" />
      <path
          
         id="path116"
         transform="translate(80.3223,133.935)"
         d="M 0.0439,0.507 C 1.1894,0 1.8857,0.602 2.0293,2.358 1.1318,1.56 0.5381,1.868 0,1.91"
         style="fill:none;stroke:#171715;stroke-width:0.94133699;stroke-linecap:round;stroke-linejoin:round;stroke-dasharray:none" />
      <path
          
         id="path118"
         transform="translate(61.1074,151.788)"
         d="M 0,0 C 0.0264,0.207 0.0606,0.424 0.2168,0.567"
         style="fill:none;stroke:#171715;stroke-width:0.94133699;stroke-linecap:round;stroke-linejoin:round;stroke-dasharray:none" />
      <path
          
         id="path120"
         transform="translate(79.7617,154.972)"
         d="M 0.0742,0.248 C 0.9033,0 2.2022,0.237 2.3272,2.169 1.292,1.147 0.5967,1.543 0,1.575"
         style="fill:none;stroke:#171715;stroke-width:0.94133699;stroke-linecap:round;stroke-linejoin:round;stroke-dasharray:none" />
      <path
          
         id="path122"
         transform="translate(75.8428,156.86)"
         d="M 0,0.488 C 1.1572,0.1 2.9804,0 3.3955,0.519 5.1875,2.754 4.2177,4.049 2.6816,4.986"
         style="fill:none;stroke:#171715;stroke-width:0.94133699;stroke-linecap:round;stroke-linejoin:round;stroke-dasharray:none" />
      <path
          
         id="path124"
         transform="translate(52.3545,156.512)"
         d="M 0,0 C 0.6025,0.489 2.9414,2.491 2.8935,3.372 3.2529,3.009 3.3701,2.022 3.3584,1.354 4.1543,1.817 6.9346,2.542 8.0019,3.459 L 8.5605,2.654 c 1.0811,0.552 2.7168,1.693 3.5186,2.934 0.084,-0.346 0.208,-1.087 0.2432,-1.359 1.9912,0.613 2.7763,1.649 3.9921,3.009 -0.33,-0.813 -0.3798,-1.359 -0.5058,-2.145 1.0596,0.207 2.1943,0.638 3.8701,1.605 -0.2861,-0.489 -0.5996,-1.005 -0.7012,-1.325 0.3243,-0.087 1.3164,-0.046 1.3164,-0.046 0.8731,1.733 4.6123,3.837 5.8487,1.83 0.29,-0.472 0.1836,-1.438 0.0273,-1.823 C 25.7842,4.386 24.585,3.546 23.2832,3.906"
         style="fill:none;stroke:#171715;stroke-width:0.94133699;stroke-linecap:round;stroke-linejoin:round;stroke-dasharray:none" />
      <path
          
         id="path126"
         transform="translate(34.6992,125.037)"
         d="M 1.9629,0 C 1.3057,1.274 0,2.822 0.5264,4.237"
         style="fill:none;stroke:#171715;stroke-width:0.94133699;stroke-linecap:round;stroke-linejoin:round;stroke-dasharray:none" />
      <path
          
         id="path128"
         transform="translate(32.5918,129.956)"
         d="M 5.8301,4.296 C 6.3076,6.571 5.0371,8.79 3.4814,9.888 1.9268,10.987 0.8896,11.59 0,12.271 0.1348,11.576 0.2764,9.86 0.3125,8.592 0.3584,6.99 0.957,5.262 2.7148,3.903 3.0732,2.771 4.0205,0.126 5.2715,0"
         style="fill:none;stroke:#171715;stroke-width:0.94133699;stroke-linecap:round;stroke-linejoin:round;stroke-dasharray:none" />
      <path
          
         id="path130"
         transform="translate(31.6211,142.302)"
         d="M 5.3525,7.508 C 4.1103,9.832 2.5908,10.966 0,10.154 1.5117,9.597 3.1582,7.489 3.4121,6.172 3.6211,5.088 4.2412,1.191 6.8945,0"
         style="fill:none;stroke:#171715;stroke-width:0.94133699;stroke-linecap:round;stroke-linejoin:round;stroke-dasharray:none" />
      <path
          
         id="path132"
         transform="translate(36.7334,146.466)"
         d="M 2.1416,0 C 1.3633,1.017 0,2.567 0.375,3.688 0.5098,4.091 0.916,3.235 1.1602,2.879 0.1914,4.129 0.6943,6.209 0.5771,7.197 1.1729,6.408 1.6104,5.612 1.8477,4.784 2.0645,4.028 2.4082,3.283 2.9844,2.846 2.6865,3.913 2.4326,5.53 2.4199,6.224 2.3984,7.442 2.3721,9.092 1.0479,10.03 2.0947,9.96 4.7383,9.545 5.0996,7.416 5.1064,7.374 5.2832,5.537 5.2832,5.537 5.1406,8.454 7.7236,8.807 7.2314,11.148 8.4893,10.061 9.709,8.608 9.4141,7.188 9.207,6.191 8.7461,4.998 8.3711,4.061"
         style="fill:none;stroke:#171715;stroke-width:0.94133699;stroke-linecap:round;stroke-linejoin:round;stroke-dasharray:none" />
      <path
          
         id="path134"
         transform="translate(52.3193,147.652)"
         d="M 0.6768,4.162 C 1.7588,2.878 0.7871,1.042 0,0"
         style="fill:none;stroke:#171715;stroke-width:0.94133699;stroke-linecap:round;stroke-linejoin:round;stroke-dasharray:none" />
      <path
          
         id="path136"
         transform="translate(56.2559,147.997)"
         d="M 1.291,0 C 2.9521,0.955 6.5712,4.442 4.3945,6.422 3.5029,5.127 1.3701,2.714 0,3.048"
         style="fill:none;stroke:#171715;stroke-width:0.94133699;stroke-linecap:round;stroke-linejoin:round;stroke-dasharray:none" />
      <path
          
         id="path138"
         transform="translate(55.4141,142.554)"
         d="M 0,0.413 C 0.5908,2.846 2.4043,2.822 3.2724,2.69 3.9463,2.589 5.4394,2.005 6.8056,3.192 6.4882,0.843 6.0703,0.16 3.4287,0"
         style="fill:none;stroke:#171715;stroke-width:0.94133699;stroke-linecap:round;stroke-linejoin:round;stroke-dasharray:none" />
      <path
          
         id="path140"
         transform="translate(55.6348,144.837)"
         d="M 0.6865,0 C 0,1.201 2.292,1.818 3.6699,2 4.79,2.147 6.0117,3.3 6.2119,4.099 6.3603,4.692 6.3408,6.401 5.4677,6.948 l 0.1172,0.408 c 2.1475,0.989 7.4199,5.474 9.9512,4.227 1.71,-0.698 5.9404,-3.485 7.5937,-2.549 1.4942,0.904 1.3116,2.494 0.4747,3.508"
         style="fill:none;stroke:#171715;stroke-width:0.94133699;stroke-linecap:round;stroke-linejoin:round;stroke-dasharray:none" />
      <path
          
         id="path142"
         transform="translate(61.8398,133.64)"
         d="M 0,15.162 C 1.3975,14.714 2.1387,14.801 3.7032,15.158 3.0977,14.458 2.9825,13.981 3.2051,13.841 3.3877,13.649 3.6748,14.027 4.5625,13.953 5.3721,13.885 6.586,13.901 8.169,13.82 7.6485,13.127 6.792,12.666 6.4873,12.464 7.253,12.228 8.5596,11.992 10.0401,12.048 9.5215,11.34 9.5293,11.434 9.1983,11.034 c 1.2715,0.041 2.0674,0.024 2.666,-0.363 -0.04,-0.195 -0.4922,-0.584 -0.7617,-0.73 1,-0.879 1.8379,-1.281 2.9482,-1.708 C 13.6211,7.926 12.8155,7.791 12.6114,7.66 12.459,7.641 14.4571,6.803 15.1446,6.334 14.6944,5.865 14.0538,5.465 13.9512,5.268 15.4659,4.379 17.4541,3.855 18.4815,2.205 18.8165,1.368 18.5625,0 17.4278,0"
         style="fill:none;stroke:#171715;stroke-width:0.94133699;stroke-linecap:round;stroke-linejoin:round;stroke-dasharray:none" />
      <path
          
         id="path144"
         transform="translate(54.5244,140.708)"
         d="M 3.8154,1.006 C 2.7774,2.224 0.6758,1.383 0,0"
         style="fill:none;stroke:#171715;stroke-width:0.94133699;stroke-linecap:round;stroke-linejoin:round;stroke-dasharray:none" />
      <path
          
         id="path146"
         transform="translate(11.9609,120.319)"
         d="m 3.7305,14.228 c 0.5244,0.951 0.8223,2.394 0.5938,3.279 -0.2539,0.982 -1.2081,1.742 -2.2071,1.95 C 3.2227,17.131 1.5752,15.117 0.7901,13.386 0,11.645 0.4356,9.634 1.5713,7.905 c 0,0 0.3067,-2.05 0.5811,-2.978 C 2.7608,2.876 4.7989,0.667 8.1084,0.3 9.7041,0.122 11.0928,0 12.3897,0.271 c 5.8096,1.213 7.8642,7.814 5.6592,13.475 -0.5791,1.487 -1.4815,3.152 -2.3702,4.624 -2.0859,3.457 -4.2285,6.687 -6.6074,9.734 -2.9785,3.817 -4.7129,5.228 -5.3886,7.968 -1.0967,4.441 2.0429,9.176 3.4238,12.191 -1.3008,-5.052 3.5244,-7.7 6.5215,-9.601 2.4365,-1.544 6,-4.416 7.207,-6.231"
         style="fill:none;stroke:#171715;stroke-width:0.94133699;stroke-linecap:round;stroke-linejoin:round;stroke-dasharray:none" />
      <path
          
         id="path148"
         transform="translate(16.3057,132.761)"
         d="M 0,5.026 C 0.8506,5.056 1.4589,4.461 1.7441,3.557 2.1093,2.404 1.4648,1.054 0.9658,0"
         style="fill:none;stroke:#171715;stroke-width:0.94133699;stroke-linecap:round;stroke-linejoin:round;stroke-dasharray:none" />
      <path
          
         id="path150"
         transform="translate(18.0908,132.17)"
         d="M 0,4.182 C 0.8369,4.208 1.419,3.316 1.5664,2.389 1.6953,1.571 1.2197,0.591 0.918,0"
         style="fill:none;stroke:#171715;stroke-width:0.94133699;stroke-linecap:round;stroke-linejoin:round;stroke-dasharray:none" />
      <path
          
         id="path152"
         transform="translate(80.1572,129.64)"
         d="M 0.3887,1.946 C 1.2032,1.512 1.8604,2.673 2.4131,3.099 2.3399,1.067 0.8985,0 0,0.508"
         style="fill:none;stroke:#171715;stroke-width:0.94133699;stroke-linecap:round;stroke-linejoin:round;stroke-dasharray:none" />
      <path
          
         id="path154"
         transform="translate(32.5439,155.772)"
         d="M 0,12.972 C 0.5684,9.356 5.169,6.607 8.1993,5.399 10.5157,4.573 13.4151,4.046 15.6973,2.832 16.5918,2.39 17.5225,2.041 18.0762,1.331 18.3663,0.956 18.4571,0.358 18.9024,0"
         style="fill:none;stroke:#171715;stroke-width:0.94133699;stroke-linecap:round;stroke-linejoin:round;stroke-dasharray:none" />
      <path
          
         id="path156"
         transform="translate(46.1064,149.127)"
         d="M 0,4.417 C 0.918,4.699 1.6807,3.884 1.9786,1.393 1.6797,3.622 2.4991,4.118 3.4424,4.668 4.3565,5.371 5.8555,6.571 5.9756,7.692 6.9004,6.344 7.8799,4.102 6.8897,2.688 6.4864,2.114 4.5127,1.505 5.5508,0"
         style="fill:none;stroke:#171715;stroke-width:0.94133699;stroke-linecap:round;stroke-linejoin:round;stroke-dasharray:none" />
      <path
          
         id="path158"
         transform="translate(80.001,158.061)"
         d="M 0,2.472 C 0.2724,2.439 0.9424,2.618 1.4472,3.077 1.7285,1.394 1.2929,0 0.0078,0.447"
         style="fill:none;stroke:#171715;stroke-width:0.94133699;stroke-linecap:round;stroke-linejoin:round;stroke-dasharray:none" />
      <path
          
         id="path160"
         transform="translate(78.1289,163.081)"
         d="M 0,1.066 C 0.4707,1.237 1.169,1.048 1.6221,2.673 1.7783,0.778 1.3174,0.102 0.5713,0"
         style="fill:none;stroke:#171715;stroke-width:0.94133699;stroke-linecap:round;stroke-linejoin:round;stroke-dasharray:none" />
      <path
          
         id="path162"
         transform="translate(36.9961,120.916)"
         d="M 3.7217,2.398 C 1.8916,2.633 0.5791,1.508 0,0"
         style="fill:none;stroke:#171715;stroke-width:0.94133699;stroke-linecap:round;stroke-linejoin:round;stroke-dasharray:none" />
      <path
          
         id="path164"
         transform="translate(48.7168,121.1)"
         d="M 1.0547,0 C 1.2969,0.356 1.5635,1.271 1.1191,1.441 0.5693,1.65 0.0928,1.168 0,0.623"
         style="fill:none;stroke:#171715;stroke-width:0.94133699;stroke-linecap:round;stroke-linejoin:round;stroke-dasharray:none" />
      <path
          
         id="path166"
         transform="translate(42.0039,133.341)"
         d="M 2.8272,4.441 C 3.2207,5.675 2.8428,6.82 1.6816,8.419 0.8799,7.274 0.6201,6.802 0.1787,5.516 0.0947,5.269 0.0371,5.098 0.0195,4.446 0,3.748 0.627,3.571 0.8916,2.675 0.918,2.583 1.2979,1.02 1.1592,0"
         style="fill:none;stroke:#171715;stroke-width:0.94133699;stroke-linecap:round;stroke-linejoin:round;stroke-dasharray:none" />
      <path
          
         id="path168"
         transform="translate(43.667,139.173)"
         d="M 0.1816,2.325 C 0,3.343 0.4853,4.154 1.1318,5.011 1.5254,5.531 2.168,7.12 2.1748,7.64 3.541,5.955 4.4795,4.378 3.8574,2.671 3.5898,1.936 3.1377,0.715 3.5283,0"
         style="fill:none;stroke:#171715;stroke-width:0.94133699;stroke-linecap:round;stroke-linejoin:round;stroke-dasharray:none" />
      <path
          
         id="path170"
         transform="translate(41.2939,130.238)"
         d="M 1.5411,5.699 C 0,4.606 0.5938,1.2 1.0391,0"
         style="fill:none;stroke:#171715;stroke-width:0.94133699;stroke-linecap:round;stroke-linejoin:round;stroke-dasharray:none" />
      <path
          
         id="path172"
         transform="translate(47.8877,134.512)"
         d="M 0.7393,2.984 C 0.1514,2.268 0,0.994 0.3018,0"
         style="fill:none;stroke:#171715;stroke-width:0.94133699;stroke-linecap:round;stroke-linejoin:round;stroke-dasharray:none" />
      <path
          
         id="path174"
         transform="translate(34.8818,136.142)"
         d="M 0,2.969 C 0.1436,2.046 0.67,0.861 1.0489,0"
         style="fill:none;stroke:#171715;stroke-width:0.94133699;stroke-linecap:round;stroke-linejoin:round;stroke-dasharray:none" />
      <path
          
         id="path176"
         transform="translate(48.8145,140.34)"
         d="M 2.3115,0 C 2.5937,0.314 3.1757,0.598 3.4384,0.681 5.6728,1.381 5.1689,3.782 5.3017,5.355 5.3408,5.815 5.04,7.005 4.4414,7.204 4.3505,6.394 2.7978,4.927 2.3457,4.721 1.0039,4.108 0,2.828 0.4892,0.291"
         style="fill:none;stroke:#171715;stroke-width:0.94133699;stroke-linecap:round;stroke-linejoin:round;stroke-dasharray:none" />
      <path
          
         id="path178"
         transform="translate(45.1289,140.943)"
         d="M 0.7119,3.228 C 1.9316,1.727 0,1.847 0.6133,0"
         style="fill:none;stroke:#171715;stroke-width:0.94133699;stroke-linecap:round;stroke-linejoin:round;stroke-dasharray:none" />
      <path
          
         id="path180"
         transform="translate(51.04,141.702)"
         d="M 1.7871,3.32 C 2.1114,2.795 2.083,2.34 1.5811,2.125 0.4278,2.167 0,0.933 0.1133,0"
         style="fill:none;stroke:#171715;stroke-width:0.94133699;stroke-linecap:round;stroke-linejoin:round;stroke-dasharray:none" />
      <path
          
         id="path182"
         transform="translate(53.918,146.299)"
         d="M 0,4.835 C 1.2666,3.567 1.4316,1.556 0.9336,0"
         style="fill:none;stroke:#171715;stroke-width:0.94133699;stroke-linecap:round;stroke-linejoin:round;stroke-dasharray:none" />
      <path
          
         id="path184"
         transform="translate(49.749,150.218)"
         d="M 1.9307,2.897 C 0.5733,2.582 0,1.136 0.0557,0"
         style="fill:none;stroke:#171715;stroke-width:0.94133699;stroke-linecap:round;stroke-linejoin:round;stroke-dasharray:none" />
      <path
          
         id="path186"
         transform="translate(43.2559,152.269)"
         d="M 0.9755,2.191 C 0.1337,1.693 0.0429,0.819 0,0"
         style="fill:none;stroke:#171715;stroke-width:0.94133699;stroke-linecap:round;stroke-linejoin:round;stroke-dasharray:none" />
      <path
          
         id="path188"
         transform="translate(40.8906,152.462)"
         d="M 0,2.103 C 0.249,1.519 0.2803,0.579 0.1416,0"
         style="fill:none;stroke:#171715;stroke-width:0.94133699;stroke-linecap:round;stroke-linejoin:round;stroke-dasharray:none" />
      <path
          
         id="path190"
         transform="translate(70.4111,172.091)"
         d="M 0,14.409 C 2.9258,9.884 4.1612,11.271 5.9102,8.324 7.4151,5.788 7.1348,3.486 10.9698,0"
         style="fill:none;stroke:#171715;stroke-width:0.94133699;stroke-linecap:round;stroke-linejoin:round;stroke-dasharray:none" />
      <path
          
         id="path192"
         transform="translate(57.6387,182.161)"
         d="M 0,12.275 C 3.0586,9.572 1.1406,8.213 4.5927,4.585 6.5595,2.518 8.3506,3.108 9.7646,0"
         style="fill:none;stroke:#171715;stroke-width:0.94133699;stroke-linecap:round;stroke-linejoin:round;stroke-dasharray:none" />
      <path
          
         id="path194"
         transform="translate(50.5879,196.204)"
         d="M 0,14.457 C 2.8037,10.483 5.1797,11.317 7.3037,8.125 9.4277,4.934 8.5459,3.549 12.0107,0"
         style="fill:none;stroke:#171715;stroke-width:0.94133699;stroke-linecap:round;stroke-linejoin:round;stroke-dasharray:none" />
      <path
          
         id="path196"
         transform="translate(46.9863,199.319)"
         d="M 0,7.931 C 1.2002,4.667 5.7813,3.895 7.5186,0"
         style="fill:none;stroke:#171715;stroke-width:0.94133699;stroke-linecap:round;stroke-linejoin:round;stroke-dasharray:none" />
      <path
          
         id="path198"
         transform="translate(41.5166,115.691)"
         d="M 0,2.403 C 2.7549,1.572 6.9346,0 9.6299,1.641 c 1.2051,0.733 3.3672,2.858 3.9433,3.263 0.8653,0.608 3.5743,-0.194 4.7813,0.578 0.9228,0.591 0.6435,1.848 0.4922,2.385 -0.583,1.12 -1.9375,-0.383 -1.5488,-0.934 0.0478,-0.066 0.9834,0.096 1.3369,1.19 0.5185,1.605 0.2978,3.064 -0.6924,3.638 -0.7979,0.464 -3.002,0.015 -3.5508,-0.334 -2.1787,-1.385 -3.5508,-1.367 -4.6934,1.087 -0.2734,0.587 -0.4589,1.395 0.044,1.785 1.3271,1.065 6.1269,-0.179 6.5215,0.323 2.1289,3.361 -0.0205,5.249 -3.6338,4.332 -0.4815,-0.123 -1.3281,-1.448 -2.5254,-1.019 -0.8965,0.321 -1.2549,1.226 -1.3027,1.963 -0.0928,1.433 1.3945,2.654 2.3847,2.938 1.6719,0.35 4.0274,0.27 5.9102,-0.111 2.2168,-0.449 3.8447,1.321 4.1084,3.447 -1.7061,-1.39 -2.5508,0.433 -4.375,-0.305 -0.3946,-0.161 -0.7686,-0.628 -0.8965,-1.088"
         style="fill:none;stroke:#171715;stroke-width:0.94133699;stroke-linecap:round;stroke-linejoin:round;stroke-dasharray:none" />
      <path
          
         id="path200"
         transform="translate(32.7959,117.029)"
         d="M 9.6484,1.825 C 8.3389,0 4.8672,0.776 2.4229,1.659 1.5527,1.975 1.4746,2.02 0,2.386 0.8037,3.122 2.9639,7.407 3.8291,7.96 4.4873,8.381 6.7959,8.339 7.9443,7.773"
         style="fill:none;stroke:#171715;stroke-width:0.94133699;stroke-linecap:round;stroke-linejoin:round;stroke-dasharray:none" />
      <path
          
         id="path202"
         transform="translate(71.8311,168.745)"
         d="M 5.6816,0 C 1.8242,3.275 2.4892,5.94 0,7.632"
         style="fill:none;stroke:#171715;stroke-width:0.94133699;stroke-linecap:round;stroke-linejoin:round;stroke-dasharray:none" />
    </g>
  </g>
  <g
     id="g4656"
     style="fill:#808080">
    <g
       id="Gruppe3"
       clip-path="url(#Clip2)"
       style="fill:#808080">
      <g
         id="Gruppe4"
         clip-path="url(#Clip3)"
         style="fill:#808080">
        <path
           style="fill:#808080;fill-rule:evenodd;stroke:none"
           d="M 26.8229,47.068 0,47.068 0,0 l 12.1919,0 0,36.827 14.631,0 0,10.241 z"
           transform="translate(96.7471,122.605)"
           id="path41"
            />
        <path
           style="fill:#808080;fill-rule:evenodd;stroke:none"
           d="m 51.894,25.103 c 0,0 0,9.587 -6.353,16.827 0,0 -7.247,8.241 -19.612,8.241 0,0 -12.329,0 -19.576,-8.241 0,0 -6.353,-7.24 -6.353,-16.827 0,0 0,-4.378 1.716,-8.981 0,0 1.718,-4.604 4.604,-7.88 0,0 7.245,-8.242 19.609,-8.242 0,0 12.365,0 19.612,8.242 0,0 6.353,7.241 6.353,16.861 z m -12.673,0 c 0,0 0,-4.966 -3.16,-8.586 0,0 -4.052,-4.62 -10.132,-4.62 0,0 -4.189,0 -7.59,2.362 0,0 -3.4,2.362 -4.841,6.292 0,0 -0.826,2.242 -0.826,4.552 0,0 0,4.759 3.161,8.518 0,0 3.915,4.655 10.096,4.655 0,0 6.183,0 10.132,-4.621 0,0 3.16,-3.689 3.16,-8.552 z"
           transform="translate(127.726,121.19)"
           id="path43"
            />
        <path
           style="fill:#808080;fill-rule:evenodd;stroke:none"
           d="m 38.981,47.068 -15.181,0 -11.607,-18.069 0,18.069 L 0,47.068 0,0 18.959,0 c 0,0 8.31,0 12.295,4.999 0,0 3.228,4.035 3.228,9.484 0,0 0,6.24 -3.709,9.965 0,0 -2.37,2.379 -6.526,3.31 l 14.734,19.31 z M 21.809,15.172 c 0,0 0,-2.518 -1.821,-4.242 0,0 -1.717,-1.62 -5.529,-1.62 l -2.266,0 0,11.758 2.266,0 c 0,0 3.846,0 5.529,-1.62 0,0 1.821,-1.759 1.821,-4.276 z"
           transform="translate(187.348,122.605)"
           id="path45"
            />
        <path
           style="fill:#808080;fill-rule:evenodd;stroke:none"
           d="m 38.982,47.068 -15.182,0 -11.607,-18.069 0,18.069 L 0,47.068 0,0 18.958,0 c 0,0 8.311,0 12.295,4.999 0,0 3.229,4.035 3.229,9.484 0,0 0,6.24 -3.709,9.965 0,0 -2.369,2.379 -6.527,3.31 l 14.736,19.31 z M 21.809,15.172 c 0,0 0,-2.518 -1.821,-4.242 0,0 -1.716,-1.62 -5.529,-1.62 l -2.266,0 0,11.758 2.266,0 c 0,0 3.847,0 5.529,-1.62 0,0 1.821,-1.759 1.821,-4.276 z"
           transform="translate(231.446,122.605)"
           id="path47"
            />
        <path
           style="fill:#808080;fill-rule:evenodd;stroke:none"
           d="m 48.975,47.068 -13.017,0 -3.022,-8.207 -16.828,0 -3.23,8.207 L 0,47.068 18.031,0 31.323,0 48.975,47.068 Z m -19.336,-17.517 -5.048,-15 -5.118,15 10.166,0 z"
           transform="translate(271.115,122.605)"
           id="path49"
            />
        <path
           style="fill:#808080;fill-rule:evenodd;stroke:none"
           d="m 35.856,46.965 c 0,0 -5.976,2.379 -11.059,2.379 0,0 -8.861,0 -15.868,-5.689 0,0 -8.929,-7.276 -8.929,-18.966 0,0 0,-11.724 8.929,-18.999 0,0 7.007,-5.69 15.97,-5.69 0,0 4.877,0 10.957,2.38 l 0,14.655 c 0,0 -1.718,-2.104 -3.504,-3.172 0,0 -3.262,-1.966 -7.007,-1.966 0,0 -4.738,0 -8.242,2.861 0,0 -4.43,3.621 -4.43,9.931 0,0 0,6.276 4.43,9.896 0,0 3.504,2.863 8.242,2.863 0,0 3.745,0 7.007,-1.965 0,0 1.752,-1.035 3.504,-3.172 l 0,14.654 z"
           transform="translate(323.387,121.604)"
           id="path51"
            />
        <path
           style="fill:#808080;fill-rule:evenodd;stroke:none"
           d="m 41.968,47.068 -12.191,0 0,-19.586 -17.584,0 0,19.586 L 0,47.068 0,0 l 12.193,0 0,18.171 17.584,0 0,-18.171 12.191,0 0,47.068 z"
           transform="translate(366.97,122.605)"
           id="path53"
            />
      </g>
      <g
         id="Gruppe5"
         clip-path="url(#Clip4)"
         style="fill:#808080">
        <path
           style="fill:#808080;fill-rule:evenodd;stroke:none"
           d="m 6.207,3.116 c 0,1.72 -1.39,3.115 -3.104,3.115 C 1.389,6.231 0,4.836 0,3.116 0,1.395 1.389,0 3.103,0 4.817,0 6.207,1.395 6.207,3.116 Z"
           transform="translate(126.347,121.689)"
           id="path56"
            />
        <path
           style="fill:#808080;fill-rule:evenodd;stroke:none"
           d="m 6.206,3.116 c 0,1.72 -1.389,3.115 -3.103,3.115 C 1.389,6.231 0,4.836 0,3.116 0,1.395 1.389,0 3.103,0 4.817,0 6.206,1.395 6.206,3.116 Z"
           transform="translate(174.325,121.689)"
           id="path58"
            />
      </g>
    </g>
    <g
       id="Gruppe10"
       clip-path="url(#Clip9)"
       style="fill:#808080">
      <path
         style="fill:#808080;fill-rule:evenodd;stroke:none"
         d="m 9.5728,3.053 c 0,0 -0.148,0.228 -0.302,0.328 0,0 -0.155,0.1 -0.422,0.1 0,0 -0.269,0 -0.55,-0.134 0,0 -0.282,-0.134 -0.63,-0.288 0,0 -0.348,-0.153 -0.798,-0.287 0,0 -0.449,-0.134 -1.039,-0.134 0,0 -0.898,0 -1.394,0.368 0,0 -0.496,0.369 -0.496,0.971 0,0 0,0.415 0.281,0.696 0,0 0.282,0.282 0.744,0.489 0,0 0.463,0.208 1.053,0.388 0,0 0.59,0.181 1.213,0.395 0,0 0.624,0.215 1.214,0.496 0,0 0.589,0.28 1.052,0.702 0,0 0.462,0.422 0.743,1.018 0,0 0.283,0.596 0.283,1.439 0,0 0,1.005 -0.369,1.855 0,0 -0.369,0.85 -1.08,1.466 0,0 -0.711,0.617 -1.769,0.964 0,0 -1.06,0.349 -2.441,0.349 0,0 -0.71,0 -1.407,-0.128 0,0 -0.697,-0.127 -1.3269,-0.361 0,0 -0.6309,-0.235 -1.1797,-0.542 0,0 -0.5498,-0.309 -0.9522,-0.67 l 0.8575,-1.379 c 0,0 0.1474,-0.241 0.3691,-0.375 0,0 0.2207,-0.134 0.5693,-0.134 0,0 0.336,0 0.6172,0.167 0,0 0.2813,0.168 0.6299,0.361 0,0 0.3488,0.195 0.8238,0.363 0,0 0.477,0.167 1.187,0.167 0,0 0.537,0 0.926,-0.12 0,0 0.388,-0.121 0.63,-0.328 0,0 0.241,-0.209 0.355,-0.469 0,0 0.113,-0.261 0.113,-0.542 0,0 0,-0.456 -0.288,-0.743 0,0 -0.288,-0.288 -0.75,-0.503 0,0 -0.463,-0.214 -1.066,-0.388 0,0 -0.604,-0.175 -1.227,-0.389 0,0 -0.6227,-0.214 -1.2194,-0.508 0,0 -0.5967,-0.295 -1.0596,-0.744 0,0 -0.4629,-0.448 -0.751,-1.104 0,0 -0.2881,-0.656 -0.2881,-1.594 0,0 0,-0.856 0.335,-1.627 0,0 0.3359,-0.769 1.0059,-1.358 0,0 0.6699,-0.59 1.6692,-0.938 0,0 0.999,-0.348 2.312,-0.348 0,0 1.476,0 2.682,0.482 0,0 1.207,0.482 1.984,1.259 l -0.844,1.312 z"
         transform="translate(96.7402,192.558)"
         id="path205"
          />
      <path
         style="fill:#808080;fill-rule:evenodd;stroke:none"
         d="m 6.73,0 c 0,0 1.327,0 2.447,0.421 0,0 1.12,0.422 1.93,1.226 0,0 0.812,0.804 1.261,1.975 0,0 0.449,1.172 0.449,2.672 0,0 0,0.415 -0.04,0.682 0,0 -0.041,0.268 -0.135,0.429 0,0 -0.093,0.16 -0.254,0.221 0,0 -0.161,0.06 -0.416,0.06 l -8.298,0 c 0,0 0.173,1.942 1.106,2.839 0,0 0.932,0.896 2.446,0.896 0,0 0.765,0 1.321,-0.18 0,0 0.556,-0.181 0.978,-0.402 0,0 0.423,-0.221 0.765,-0.402 0,0 0.342,-0.181 0.677,-0.181 0,0 0.429,0 0.67,0.322 l 1.073,1.339 c 0,0 -0.59,0.683 -1.301,1.131 0,0 -0.71,0.449 -1.475,0.71 0,0 -0.763,0.261 -1.542,0.362 0,0 -0.777,0.1 -1.501,0.1 0,0 -1.448,0 -2.702,-0.475 0,0 -1.253,-0.476 -2.184,-1.407 0,0 -0.932,-0.93 -1.469,-2.309 0,0 -0.536,-1.379 -0.536,-3.2 0,0 0,-1.407 0.463,-2.652 0,0 0.462,-1.245 1.334,-2.169 0,0 0.871,-0.923 2.118,-1.465 C 3.915,0.543 5.162,0 6.73,0 Z m 0.068,2.597 c 0,0 -1.328,0 -2.079,0.757 0,0 -0.751,0.757 -0.978,2.136 l 5.765,0 c 0,0 0,-0.576 -0.155,-1.098 0,0 -0.154,-0.522 -0.489,-0.924 0,0 -0.335,-0.402 -0.845,-0.636 0,0 -0.509,-0.235 -1.219,-0.235 z"
         transform="translate(108.846,192.558)"
         id="path207"
          />
      <path
         style="fill:#808080;fill-rule:evenodd;stroke:none"
         d="m 4.143,6.172 0,13.806 -3.7,0 0,-13.806 3.7,0 z M 4.585,2.25 c 0,0 0,0.468 -0.187,0.87 0,0 -0.188,0.401 -0.503,0.71 0,0 -0.316,0.307 -0.738,0.481 0,0 -0.422,0.175 -0.905,0.175 0,0 -0.455,0 -0.864,-0.175 0,0 -0.409,-0.174 -0.718,-0.481 0,0 -0.308,-0.309 -0.489,-0.71 C 0.181,3.12 0,2.718 0,2.25 c 0,0 0,-0.469 0.181,-0.877 0,0 0.181,-0.409 0.489,-0.717 0,0 0.309,-0.308 0.718,-0.482 0,0 0.409,-0.174 0.864,-0.174 0,0 0.483,0 0.905,0.174 0,0 0.422,0.174 0.738,0.482 0,0 0.315,0.308 0.503,0.717 0,0 0.187,0.408 0.187,0.877 z"
         transform="translate(123.62,186.599)"
         id="path209"
          />
      <path
         style="fill:#808080;fill-rule:evenodd;stroke:none"
         d="m 5.899,18.143 c 0,0 -0.938,0 -1.663,-0.274 0,0 -0.724,-0.275 -1.22,-0.784 0,0 -0.496,-0.508 -0.751,-1.231 0,0 -0.253,-0.724 -0.253,-1.634 l 0,-7.445 -1.301,0 c 0,0 -0.295,0 -0.503,-0.187 C 0.208,6.588 0,6.401 0,6.026 L 0,4.58 2.212,4.177 2.963,0.603 C 2.963,0.603 3.11,0 3.781,0 l 1.931,0 0,4.205 3.565,0 0,2.57 -3.565,0 0,7.204 c 0,0 0,0.576 0.274,0.911 0,0 0.276,0.334 0.784,0.334 0,0 0.269,0 0.456,-0.059 0,0 0.188,-0.061 0.322,-0.135 0,0 0.134,-0.074 0.248,-0.134 0,0 0.114,-0.06 0.235,-0.06 0,0 0.16,0 0.268,0.074 0,0 0.107,0.073 0.214,0.248 l 1.113,1.767 c 0,0 -0.764,0.603 -1.73,0.91 0,0 -0.965,0.308 -1.997,0.308 z"
         transform="translate(129.801,188.648)"
         id="path211"
          />
      <path
         style="fill:#808080;fill-rule:evenodd;stroke:none"
         d="m 1.474,16.724 3.862,0 0,-10.631 c 0,0 0,-0.683 0.04,-1.433 L 2.842,6.761 c 0,0 -0.268,0.202 -0.523,0.255 0,0 -0.254,0.054 -0.482,0.007 0,0 -0.228,-0.047 -0.403,-0.161 0,0 -0.174,-0.113 -0.267,-0.234 L 0,5.061 5.979,0 l 3.044,0 0,16.724 3.365,0 0,2.718 -10.914,0 0,-2.718 z"
         transform="translate(147.471,187.135)"
         id="path213"
          />
      <path
         style="fill:#808080;fill-rule:evenodd;stroke:none"
         d="m 6.838,19.857 c 0,0 -1.529,0 -2.789,-0.408 0,0 -1.26,-0.408 -2.158,-1.152 0,0 -0.899,-0.743 -1.395,-1.8 0,0 -0.496,-1.059 -0.496,-2.358 0,0 0,-1.66 0.805,-2.844 0,0 0.804,-1.186 2.574,-1.775 0,0 -1.381,-0.602 -2.059,-1.687 0,0 -0.677,-1.084 -0.677,-2.584 0,0 0,-1.125 0.456,-2.082 0,0 0.457,-0.957 1.281,-1.661 0,0 0.824,-0.703 1.964,-1.104 0,0 1.139,-0.402 2.494,-0.402 0,0 1.353,0 2.493,0.402 0,0 1.14,0.401 1.965,1.104 0,0 0.824,0.704 1.28,1.661 0,0 0.455,0.957 0.455,2.082 0,0 0,1.5 -0.683,2.584 0,0 -0.684,1.085 -2.051,1.687 0,0 1.756,0.589 2.567,1.775 0,0 0.811,1.184 0.811,2.844 0,0 0,1.299 -0.496,2.358 0,0 -0.496,1.057 -1.394,1.8 0,0 -0.898,0.744 -2.159,1.152 0,0 -1.26,0.408 -2.788,0.408 z m 0,-2.825 c 0,0 0.763,0 1.334,-0.228 0,0 0.569,-0.227 0.945,-0.623 0,0 0.375,-0.394 0.563,-0.936 0,0 0.187,-0.543 0.187,-1.172 0,0 0,-1.446 -0.744,-2.243 0,0 -0.743,-0.796 -2.285,-0.796 0,0 -1.542,0 -2.286,0.796 0,0 -0.744,0.797 -0.744,2.243 0,0 0,0.629 0.187,1.172 0,0 0.188,0.542 0.563,0.936 0,0 0.375,0.396 0.946,0.623 0,0 0.569,0.228 1.334,0.228 z m 0,-8.851 c 0,0 0.763,0 1.26,-0.241 0,0 0.496,-0.241 0.791,-0.643 0,0 0.294,-0.401 0.416,-0.917 0,0 0.12,-0.515 0.12,-1.064 0,0 0,-0.509 -0.148,-0.978 0,0 -0.147,-0.468 -0.462,-0.823 0,0 -0.315,-0.355 -0.804,-0.569 0,0 -0.49,-0.214 -1.173,-0.214 0,0 -0.684,0 -1.174,0.214 0,0 -0.489,0.214 -0.804,0.569 0,0 -0.315,0.355 -0.463,0.823 0,0 -0.147,0.469 -0.147,0.978 0,0 0,0.549 0.121,1.064 0,0 0.12,0.516 0.415,0.917 0,0 0.295,0.402 0.791,0.643 0,0 0.496,0.241 1.261,0.241 z"
         transform="translate(162.38,186.934)"
         id="path215"
          />
      <path
         style="fill:#808080;fill-rule:evenodd;stroke:none"
         d="m 6.275,6.976 c 0,0 -0.322,0.361 -0.604,0.724 0,0 0.51,-0.229 1.106,-0.356 0,0 0.596,-0.127 1.281,-0.127 0,0 1.086,0 2.118,0.362 0,0 1.032,0.361 1.836,1.085 0,0 0.805,0.722 1.294,1.814 0,0 0.489,1.091 0.489,2.563 0,0 0,1.353 -0.502,2.558 0,0 -0.503,1.205 -1.422,2.103 0,0 -0.918,0.897 -2.198,1.419 0,0 -1.28,0.522 -2.848,0.522 0,0 -1.596,0 -2.857,-0.502 0,0 -1.26,-0.502 -2.144,-1.413 0,0 -0.885,-0.91 -1.355,-2.176 0,0 -0.469,-1.265 -0.469,-2.792 0,0 0,-1.405 0.556,-2.851 0,0 0.557,-1.447 1.696,-2.973 L 6.771,0.857 c 0,0 0.267,-0.348 0.791,-0.603 0,0 0.522,-0.254 1.192,-0.254 l 3.285,0 -5.764,6.976 z m -2.722,6.32 c 0,0 0,0.763 0.201,1.386 0,0 0.201,0.622 0.603,1.065 0,0 0.402,0.441 0.999,0.682 0,0 0.597,0.241 1.401,0.241 0,0 0.724,0 1.341,-0.254 0,0 0.616,-0.254 1.059,-0.71 0,0 0.442,-0.455 0.697,-1.064 0,0 0.255,-0.609 0.255,-1.332 0,0 0,-0.79 -0.241,-1.42 0,0 -0.242,-0.629 -0.684,-1.064 0,0 -0.442,-0.435 -1.06,-0.663 0,0 -0.616,-0.228 -1.367,-0.228 0,0 -0.711,0 -1.301,0.248 0,0 -0.589,0.248 -1.011,0.696 0,0 -0.423,0.449 -0.658,1.065 0,0 -0.234,0.616 -0.234,1.352 z"
         transform="translate(177.985,187.148)"
         id="path217"
          />
      <path
         style="fill:#808080;fill-rule:evenodd;stroke:none"
         d="m 6.837,19.857 c 0,0 -1.528,0 -2.788,-0.408 0,0 -1.261,-0.408 -2.159,-1.152 0,0 -0.897,-0.743 -1.394,-1.8 0,0 -0.496,-1.059 -0.496,-2.358 0,0 0,-1.66 0.804,-2.844 0,0 0.805,-1.186 2.574,-1.775 0,0 -1.381,-0.602 -2.057,-1.687 0,0 -0.677,-1.084 -0.677,-2.584 0,0 0,-1.125 0.455,-2.082 0,0 0.456,-0.957 1.28,-1.661 0,0 0.825,-0.703 1.965,-1.104 0,0 1.14,-0.402 2.493,-0.402 0,0 1.355,0 2.494,0.402 0,0 1.14,0.401 1.964,1.104 0,0 0.825,0.704 1.281,1.661 0,0 0.456,0.957 0.456,2.082 0,0 0,1.5 -0.684,2.584 0,0 -0.684,1.085 -2.052,1.687 0,0 1.757,0.589 2.568,1.775 0,0 0.811,1.184 0.811,2.844 0,0 0,1.299 -0.496,2.358 0,0 -0.496,1.057 -1.394,1.8 0,0 -0.899,0.744 -2.159,1.152 0,0 -1.26,0.408 -2.789,0.408 z m 0,-2.825 c 0,0 0.765,0 1.334,-0.228 0,0 0.571,-0.227 0.946,-0.623 0,0 0.376,-0.394 0.563,-0.936 0,0 0.188,-0.543 0.188,-1.172 0,0 0,-1.446 -0.745,-2.243 0,0 -0.744,-0.796 -2.286,-0.796 0,0 -1.542,0 -2.285,0.796 0,0 -0.744,0.797 -0.744,2.243 0,0 0,0.629 0.187,1.172 0,0 0.188,0.542 0.563,0.936 0,0 0.376,0.396 0.945,0.623 0,0 0.571,0.228 1.334,0.228 z m 0,-8.851 c 0,0 0.765,0 1.261,-0.241 0,0 0.496,-0.241 0.791,-0.643 0,0 0.295,-0.401 0.415,-0.917 0,0 0.121,-0.515 0.121,-1.064 0,0 0,-0.509 -0.147,-0.978 0,0 -0.148,-0.468 -0.463,-0.823 0,0 -0.315,-0.355 -0.805,-0.569 0,0 -0.489,-0.214 -1.173,-0.214 0,0 -0.683,0 -1.173,0.214 0,0 -0.489,0.214 -0.804,0.569 0,0 -0.315,0.355 -0.462,0.823 0,0 -0.148,0.469 -0.148,0.978 0,0 0,0.549 0.12,1.064 0,0 0.122,0.516 0.417,0.917 0,0 0.294,0.402 0.791,0.643 0,0 0.496,0.241 1.259,0.241 z"
         transform="translate(193.484,186.934)"
         id="path219"
          />
    </g>
  </g>
</svg>
